<?xml version="1.0" encoding="UTF-8"?>
<svg version="1.1" xmlns="http://www.w3.org/2000/svg" width="228" height="253">
<path d="M0 0 C0.61986469 12.29398309 0.20810111 25.44177217 -8.171875 35.32421875 C-12.89777417 39.65629299 -18.3114773 42.58119225 -24.4375 44.375 C-28.02319007 45.57162213 -28.02319007 45.57162213 -29.00415039 47.90869141 C-29.35981079 48.9941626 -29.35981079 48.9941626 -29.72265625 50.1015625 C-29.96894775 50.82939941 -30.21523926 51.55723633 -30.46899414 52.30712891 C-30.64422607 52.86577637 -30.81945801 53.42442383 -31 54 C-29.40514771 53.9685791 -29.40514771 53.9685791 -27.77807617 53.93652344 C-23.78423859 53.86341101 -19.79045851 53.817945 -15.79614258 53.78027344 C-14.07663991 53.76031852 -12.35720367 53.73314442 -10.63793945 53.69824219 C-0.71296571 53.5019938 7.90748671 53.4468735 17 58 C17.98355469 58.46921875 18.96710938 58.9384375 19.98046875 59.421875 C32.4757125 66.94113673 38.45185521 76.35556563 43 90 C43.06802967 91.72795352 43.08495645 93.45835365 43.0625 95.1875 C43.05347656 96.08855469 43.04445312 96.98960938 43.03515625 97.91796875 C43.01775391 98.94857422 43.01775391 98.94857422 43 100 C44.3303125 100.37125 44.3303125 100.37125 45.6875 100.75 C51.62088287 102.9890124 54.4683368 106.07919809 57.15771484 111.64599609 C58.67334317 115.88184777 58.57667646 120.04637568 58.5 124.5 C58.52320313 125.84771484 58.52320313 125.84771484 58.546875 127.22265625 C58.50547436 134.33321608 56.93213679 139.67691164 52.18359375 145.05859375 C51.60738281 145.51363281 51.03117188 145.96867188 50.4375 146.4375 C49.85871094 146.91058594 49.27992188 147.38367188 48.68359375 147.87109375 C47 149 47 149 44 150 C43.9484375 150.76441406 43.896875 151.52882812 43.84375 152.31640625 C43.10556912 159.28718251 41.45815858 164.92622969 38.1875 171.0625 C37.85621094 171.69293213 37.52492187 172.32336426 37.18359375 172.97290039 C34.96702034 176.92809857 32.5829822 179.29448283 29 182 C28.03513672 183.26263672 28.03513672 183.26263672 27.05078125 184.55078125 C24.66466112 187.40049043 22.52638041 188.58878062 19.1875 190.1875 C18.19105469 190.67605469 17.19460937 191.16460937 16.16796875 191.66796875 C8.99826866 194.6826022 2.93223479 195.31235776 -4.7890625 195.37890625 C-5.81051361 195.39590073 -6.83196472 195.4128952 -7.8843689 195.43040466 C-11.13118396 195.48328605 -14.37798838 195.52371893 -17.625 195.5625 C-20.87908885 195.6065327 -24.133083 195.65330233 -27.38705444 195.70530701 C-29.40702144 195.73708193 -31.42707169 195.7640274 -33.44717407 195.78553772 C-34.36517792 195.79902756 -35.28318176 195.8125174 -36.22900391 195.82641602 C-37.03173737 195.83592789 -37.83447083 195.84543976 -38.66152954 195.85523987 C-41.20266994 196.01254603 -43.53785708 196.34757951 -46 197 C-46.69586646 198.31832928 -47.35682412 199.6551777 -48 201 C-50.03211971 202.74790716 -52.03593873 204.35380389 -54.1875 205.9375 C-54.77321777 206.37843994 -55.35893555 206.81937988 -55.96240234 207.27368164 C-58.9847908 209.54026338 -62.03780549 211.75986602 -65.125 213.9375 C-67.88169157 215.78062001 -67.88169157 215.78062001 -69.47265625 217.54296875 C-72.03307875 219.98552013 -74.57022632 220.41868243 -78 221 C-81.43239208 219.89904405 -83.35190702 219.13907252 -85.16015625 215.9609375 C-86.33044465 211.8349905 -86.21249881 207.95138435 -86.125 203.6875 C-86.11597656 202.85154297 -86.10695312 202.01558594 -86.09765625 201.15429688 C-86.07420989 199.10274031 -86.03834266 197.05133223 -86 195 C-87.155 195 -88.31 195 -89.5 195 C-94.5883144 194.44903602 -98.72182382 192.49961447 -103.25 190.25 C-103.93513672 189.91484375 -104.62027344 189.5796875 -105.32617188 189.234375 C-116.16602726 183.65052755 -122.80925759 173.21282739 -127 162 C-127.63164843 158.78761658 -128.02702187 155.61648309 -128.40625 152.3671875 C-128.81233878 149.63032452 -128.81233878 149.63032452 -132.0625 147.9375 C-133.031875 147.628125 -134.00125 147.31875 -135 147 C-135.33 146.01 -135.66 145.02 -136 144 C-136.99 143.67 -137.98 143.34 -139 143 C-144.76896647 136.0926756 -143.76802116 125.52426598 -143.20996094 117.11523438 C-142.77701777 112.75358371 -141.93008806 109.32224631 -139 106 C-137.32223389 104.84991839 -135.61054161 103.74838743 -133.875 102.6875 C-130.08005692 100.33194134 -130.08005692 100.33194134 -128.1875 96.4609375 C-127.97251949 94.46699325 -127.77974941 92.4705693 -127.60546875 90.47265625 C-126.83499502 86.05361662 -125.18950365 82.48721044 -123.1875 78.5 C-122.85540527 77.81752197 -122.52331055 77.13504395 -122.18115234 76.43188477 C-120.01942644 72.24334549 -117.87573857 69.80145269 -114 67 C-112.82244141 65.75476563 -112.82244141 65.75476563 -111.62109375 64.484375 C-108.69726202 61.71305312 -105.65519041 59.97480078 -102.0625 58.25 C-101.46759766 57.94707031 -100.87269531 57.64414063 -100.25976562 57.33203125 C-92.85840313 53.69201691 -85.76002412 53.86235299 -77.6953125 53.90234375 C-76.61619598 53.9037587 -75.53707947 53.90517365 -74.42526245 53.90663147 C-70.99181298 53.91221156 -67.55842964 53.92476045 -64.125 53.9375 C-61.79166761 53.94251757 -59.4583342 53.94708003 -57.125 53.95117188 C-51.41664425 53.96217447 -45.70832685 53.97889279 -40 54 C-39.94131744 53.38729248 -39.88263489 52.77458496 -39.82217407 52.14331055 C-39.73986542 51.33676025 -39.65755676 50.53020996 -39.57275391 49.69921875 C-39.49344635 48.90088623 -39.41413879 48.10255371 -39.33242798 47.2800293 C-38.05096198 38.49081716 -31.60819079 30.57054306 -26 24 C-30.03498739 25.55120797 -32.03315791 28.16561986 -34.6875 31.5 C-35.47511719 32.4796875 -36.26273437 33.459375 -37.07421875 34.46875 C-38.98858831 36.82246993 -38.98858831 36.82246993 -40 39 C-41.98 38.505 -41.98 38.505 -44 38 C-44.4640625 39.4540625 -44.4640625 39.4540625 -44.9375 40.9375 C-46 44 -46 44 -47 45 C-54.12791349 45.76415241 -60.14754987 45.35083464 -66 41 C-71.78894829 35.80310324 -74.60593444 29.94065565 -75.375 22.25 C-75 19 -75 19 -74.0625 16.5625 C-70.62469875 13.95810511 -67.14544198 14.46299172 -63 15 C-56.82128446 16.31893764 -52.4646233 18.5353767 -48 23 C-47.29467032 24.31329062 -46.61902949 25.64389354 -46 27 C-45.85304688 26.38253906 -45.70609375 25.76507813 -45.5546875 25.12890625 C-43.0519841 15.6790434 -39.0755304 8.38700248 -30.55078125 3.21484375 C-21.30788741 -1.18720829 -9.70527498 -3.62199744 0 0 Z M-91 93 C-97.87368153 102.33924122 -98.27115849 110.31094842 -98.35009766 121.48510742 C-98.36657948 123.19097612 -98.39376584 124.89677801 -98.43212891 126.60229492 C-98.74957904 140.51891335 -98.74957904 140.51891335 -93 153 C-92.443125 153.928125 -91.88625 154.85625 -91.3125 155.8125 C-81.02324113 165.54558271 -66.89167199 164.1545653 -53.67578125 164.203125 C-52.44893112 164.20882507 -51.22208099 164.21452515 -49.95805359 164.22039795 C-47.38407232 164.22977907 -44.81007942 164.23635422 -42.23608398 164.24023438 C-38.31277735 164.24999931 -34.38998236 164.28111255 -30.46679688 164.3125 C-27.95312808 164.31902607 -25.43945558 164.32427809 -22.92578125 164.328125 C-21.76307205 164.3404718 -20.60036285 164.3528186 -19.40242004 164.36553955 C-9.72898341 164.33919021 -1.28280254 162.75611608 6 156 C11.61248922 149.50916366 13.31245953 143.72372023 13.3359375 135.26171875 C13.3425943 134.42212112 13.3492511 133.5825235 13.35610962 132.71748352 C13.36621029 130.94489727 13.37092744 129.1722732 13.37060547 127.3996582 C13.37496914 124.7065462 13.41128822 122.01508702 13.44921875 119.32226562 C13.45508962 117.59375556 13.4590572 115.86523777 13.4609375 114.13671875 C13.47530853 113.34061691 13.48967957 112.54451508 13.50448608 111.72428894 C13.44414452 104.23151608 10.57976159 98.03662069 5.62109375 92.3828125 C-0.67631289 87.01104877 -8.09895611 84.88902526 -16.1862793 84.83886719 C-17.43825607 84.82925964 -18.69023285 84.8196521 -19.98014832 84.80975342 C-21.34483659 84.80490373 -22.70952701 84.80062532 -24.07421875 84.796875 C-25.11099227 84.79263393 -25.11099227 84.79263393 -26.16871071 84.78830719 C-29.82951869 84.77333425 -33.49028748 84.76409405 -37.15112305 84.75976562 C-40.91236662 84.75429708 -44.67324524 84.73029831 -48.43437481 84.70179367 C-51.34366358 84.68306129 -54.25286651 84.677956 -57.16221046 84.67642975 C-58.54754433 84.67342436 -59.93287746 84.66546821 -61.31815147 84.65224457 C-72.10402436 84.55666891 -82.59977819 85.49980196 -91 93 Z " fill="#1B85D7" transform="translate(155,17)"/>
<path d="M0 0 C0.61986469 12.29398309 0.20810111 25.44177217 -8.171875 35.32421875 C-12.89777417 39.65629299 -18.3114773 42.58119225 -24.4375 44.375 C-28.02319007 45.57162213 -28.02319007 45.57162213 -29.00415039 47.90869141 C-29.35981079 48.9941626 -29.35981079 48.9941626 -29.72265625 50.1015625 C-29.96894775 50.82939941 -30.21523926 51.55723633 -30.46899414 52.30712891 C-30.64422607 52.86577637 -30.81945801 53.42442383 -31 54 C-29.40514771 53.9685791 -29.40514771 53.9685791 -27.77807617 53.93652344 C-23.78423859 53.86341101 -19.79045851 53.817945 -15.79614258 53.78027344 C-14.07663991 53.76031852 -12.35720367 53.73314442 -10.63793945 53.69824219 C1.01823384 53.46776246 11.43155877 53.39099906 21 61 C19.60301364 60.71390693 18.2074567 60.42083095 16.8125 60.125 C16.03519531 59.96257812 15.25789062 59.80015625 14.45703125 59.6328125 C12 59 12 59 9.92382812 57.98632812 C5.85796654 56.61474489 2.02680656 56.64395696 -2.23828125 56.5859375 C-3.11904831 56.56657135 -3.99981537 56.5472052 -4.90727234 56.5272522 C-7.70891766 56.46767149 -10.51060456 56.42115735 -13.3125 56.375 C-15.21681438 56.33680041 -17.12111185 56.29774753 -19.02539062 56.2578125 C-23.68345572 56.16198767 -28.34160168 56.0778774 -33 56 C-33.59732819 53.23735711 -34 50.83967231 -34 48 C-34.66 48 -35.32 48 -36 48 C-37.35618499 49.12534105 -37.35618499 49.12534105 -37.0625 52.0625 C-37.041875 53.031875 -37.02125 54.00125 -37 55 C-39.4365712 56.2182856 -41.03000047 56.13742159 -43.75341797 56.15771484 C-44.74139374 56.16797699 -45.72936951 56.17823914 -46.74728394 56.18881226 C-47.81810211 56.19611359 -48.88892029 56.20341492 -49.9921875 56.2109375 C-52.24610104 56.23900361 -54.5000072 56.26766806 -56.75390625 56.296875 C-60.3178692 56.33817351 -63.8816939 56.37504943 -67.44580078 56.40136719 C-70.87822159 56.4289292 -74.31000938 56.47480028 -77.7421875 56.5234375 C-78.80895721 56.52669037 -79.87572693 56.52994324 -80.974823 56.53329468 C-82.46624313 56.55814438 -82.46624313 56.55814438 -83.98779297 56.58349609 C-85.29778763 56.59562637 -85.29778763 56.59562637 -86.63424683 56.60800171 C-89.47319717 57.07840737 -90.79373678 58.20820323 -93 60 C-95.60913873 60.38608751 -98.12300448 60.43745559 -100.7578125 60.49609375 C-103.1863899 60.76589711 -103.1863899 60.76589711 -104.3046875 63.03515625 C-104.53414062 63.68355469 -104.76359375 64.33195312 -105 65 C-105.66 65 -106.32 65 -107 65 C-107.495 65.99 -107.495 65.99 -108 67 C-111.0625 67.625 -111.0625 67.625 -114 68 C-111.50538557 61.61874872 -104.18321053 58.89527393 -98.25 56.1875 C-91.46235886 53.70740035 -84.82974515 53.866966 -77.6953125 53.90234375 C-76.61619598 53.9037587 -75.53707947 53.90517365 -74.42526245 53.90663147 C-70.99181298 53.91221156 -67.55842964 53.92476045 -64.125 53.9375 C-61.79166761 53.94251757 -59.4583342 53.94708003 -57.125 53.95117188 C-51.41664425 53.96217447 -45.70832685 53.97889279 -40 54 C-39.94131744 53.38729248 -39.88263489 52.77458496 -39.82217407 52.14331055 C-39.73986542 51.33676025 -39.65755676 50.53020996 -39.57275391 49.69921875 C-39.49344635 48.90088623 -39.41413879 48.10255371 -39.33242798 47.2800293 C-38.05096198 38.49081716 -31.60819079 30.57054306 -26 24 C-30.03498739 25.55120797 -32.03315791 28.16561986 -34.6875 31.5 C-35.47511719 32.4796875 -36.26273437 33.459375 -37.07421875 34.46875 C-38.98858831 36.82246993 -38.98858831 36.82246993 -40 39 C-41.98 38.505 -41.98 38.505 -44 38 C-44.4640625 39.4540625 -44.4640625 39.4540625 -44.9375 40.9375 C-46 44 -46 44 -47 45 C-54.12791349 45.76415241 -60.14754987 45.35083464 -66 41 C-71.78894829 35.80310324 -74.60593444 29.94065565 -75.375 22.25 C-75 19 -75 19 -74.0625 16.5625 C-70.62469875 13.95810511 -67.14544198 14.46299172 -63 15 C-56.82128446 16.31893764 -52.4646233 18.5353767 -48 23 C-47.29467032 24.31329062 -46.61902949 25.64389354 -46 27 C-45.85304688 26.38253906 -45.70609375 25.76507813 -45.5546875 25.12890625 C-43.0519841 15.6790434 -39.0755304 8.38700248 -30.55078125 3.21484375 C-21.30788741 -1.18720829 -9.70527498 -3.62199744 0 0 Z " fill="#1E86D7" transform="translate(155,17)"/>
<path d="M0 0 C2.97098336 0.41455582 5.60559824 0.83041374 8.37109375 2.01953125 C13.24136488 3.83593252 19.14604826 3.9690657 24.09375 2.2890625 C24.6815625 2.00804687 25.269375 1.72703125 25.875 1.4375 C29 0 29 0 31.8125 0.1875 C34 1 34 1 36 3 C36.3671875 5.42578125 36.3671875 5.42578125 36 8 C31.02445687 13.32407151 24.07391361 15.43546944 17 16 C9.915847 16 3.57476822 13.42846263 -2 9 C-2.90625 6.44140625 -2.90625 6.44140625 -3 4 C-1.5625 1.6875 -1.5625 1.6875 0 0 Z " fill="#2087D5" transform="translate(96,150)"/>
<path d="M0 0 C4.29 1.32 8.58 2.64 13 4 C10 6 10 6 8 7 C7.09656316 8.88263881 7.09656316 8.88263881 6.375 11.0625 C6.11460938 11.79597656 5.85421875 12.52945313 5.5859375 13.28515625 C5.39257812 13.85105469 5.19921875 14.41695312 5 15 C6.06323486 14.97905273 7.12646973 14.95810547 8.22192383 14.93652344 C12.21576141 14.86341101 16.20954149 14.817945 20.20385742 14.78027344 C21.92336009 14.76031852 23.64279633 14.73314442 25.36206055 14.69824219 C37.01823384 14.46776246 47.43155877 14.39099906 57 22 C55.60301364 21.71390693 54.2074567 21.42083095 52.8125 21.125 C52.03519531 20.96257812 51.25789062 20.80015625 50.45703125 20.6328125 C48 20 48 20 45.92382812 18.98632812 C41.85796654 17.61474489 38.02680656 17.64395696 33.76171875 17.5859375 C32.44056816 17.55688828 32.44056816 17.55688828 31.09272766 17.5272522 C28.29108234 17.46767149 25.48939544 17.42115735 22.6875 17.375 C20.78318562 17.33680041 18.87888815 17.29774753 16.97460938 17.2578125 C12.31654428 17.16198767 7.65839832 17.0778774 3 17 C2.40267181 14.23735711 2 11.83967231 2 9 C1.34 9 0.68 9 0 9 C-1.35618499 10.12534105 -1.35618499 10.12534105 -1.0625 13.0625 C-1.041875 14.031875 -1.02125 15.00125 -1 16 C-3.4365712 17.2182856 -5.03000047 17.13742159 -7.75341797 17.15771484 C-8.74139374 17.16797699 -9.72936951 17.17823914 -10.74728394 17.18881226 C-11.81810211 17.19611359 -12.88892029 17.20341492 -13.9921875 17.2109375 C-16.24610104 17.23900361 -18.5000072 17.26766806 -20.75390625 17.296875 C-24.3178692 17.33817351 -27.8816939 17.37504943 -31.44580078 17.40136719 C-34.87822159 17.4289292 -38.31000938 17.47480028 -41.7421875 17.5234375 C-42.80895721 17.52669037 -43.87572693 17.52994324 -44.974823 17.53329468 C-46.46624313 17.55814438 -46.46624313 17.55814438 -47.98779297 17.58349609 C-49.29778763 17.59562637 -49.29778763 17.59562637 -50.63424683 17.60800171 C-53.47319717 18.07840737 -54.79373678 19.20820323 -57 21 C-59.60913873 21.38608751 -62.12300448 21.43745559 -64.7578125 21.49609375 C-67.1863899 21.76589711 -67.1863899 21.76589711 -68.3046875 24.03515625 C-68.53414062 24.68355469 -68.76359375 25.33195312 -69 26 C-69.66 26 -70.32 26 -71 26 C-71.33 26.66 -71.66 27.32 -72 28 C-75.0625 28.625 -75.0625 28.625 -78 29 C-75.50538557 22.61874872 -68.18321053 19.89527393 -62.25 17.1875 C-55.46235886 14.70740035 -48.82974515 14.866966 -41.6953125 14.90234375 C-40.61619598 14.9037587 -39.53707947 14.90517365 -38.42526245 14.90663147 C-34.99181298 14.91221156 -31.55842964 14.92476045 -28.125 14.9375 C-25.79166761 14.94251757 -23.4583342 14.94708003 -21.125 14.95117188 C-15.41664425 14.96217447 -9.70832685 14.97889279 -4 15 C-3.96261719 14.41992188 -3.92523438 13.83984375 -3.88671875 13.2421875 C-3.82097656 12.46101563 -3.75523438 11.67984375 -3.6875 10.875 C-3.62949219 10.10929687 -3.57148437 9.34359375 -3.51171875 8.5546875 C-3 6 -3 6 0 0 Z " fill="#2A81C3" transform="translate(119,56)"/>
<path d="M0 0 C4.00654338 3.32457855 6.80783215 6.20643337 7.375 11.5 C7 15 7 15 5.3125 17 C3 18 3 18 0.4375 18 C-2.78605953 16.67751404 -3.55890945 15.10972172 -5 12 C-5 11.34 -5 10.68 -5 10 C-6.65 10 -8.3 10 -10 10 C-10.268125 10.94875 -10.53625 11.8975 -10.8125 12.875 C-12 16 -12 16 -15 18 C-18.32240324 17.6758631 -19.60776303 17.39223697 -22 15 C-22.54939888 10.16528989 -21.64795187 7.06019287 -19 3 C-12.49312063 -2.12243695 -7.6953229 -2.81703785 0 0 Z " fill="#2188D4" transform="translate(91,122)"/>
<path d="M0 0 C3.99718569 3.36126979 5.4807631 6.35091687 6.1875 11.5 C5.75 14.3125 5.75 14.3125 4.0625 16.25 C1.75 17.3125 1.75 17.3125 -0.8125 17.3125 C-4.03605953 15.99001404 -4.80890945 14.42222172 -6.25 11.3125 C-6.25 10.6525 -6.25 9.9925 -6.25 9.3125 C-7.9 9.3125 -9.55 9.3125 -11.25 9.3125 C-11.3325 10.26125 -11.415 11.21 -11.5 12.1875 C-12.25 15.3125 -12.25 15.3125 -14 16.75 C-16.82004041 17.4550101 -18.50530571 17.25147436 -21.25 16.3125 C-23.25 13.3125 -23.25 13.3125 -23.25 10.0625 C-21.98012742 5.30047781 -19.95052125 2.52019482 -16.25 -0.6875 C-10.50599512 -3.62060888 -5.63360097 -2.92513897 0 0 Z " fill="#307EB9" transform="translate(150.25,122.6875)"/>
<path d="M0 0 C2 3 2 3 3.2265625 5.3046875 C7.15048782 12.5168184 11.18688981 16.39562994 19 19 C27.41084968 20.06615076 35.8585841 20.15982379 44.32421875 20.16796875 C45.55106888 20.17129715 46.77791901 20.17462555 48.04194641 20.17805481 C50.6159325 20.18308335 53.18992502 20.18546441 55.76391602 20.18530273 C59.6871204 20.18749979 63.61004792 20.20572801 67.53320312 20.22460938 C70.04687405 20.22754211 72.56054629 20.22952771 75.07421875 20.23046875 C76.23692795 20.23765427 77.39963715 20.24483978 78.59757996 20.25224304 C85.0537879 20.23421446 90.75669104 19.6666163 97 18 C97 18.99 97 19.98 97 21 C92.55439253 22.69925128 88.84878105 23.26012652 84.09936523 23.29052734 C83.43662094 23.29724457 82.77387665 23.30396179 82.09104919 23.31088257 C79.9134863 23.32977956 77.73623341 23.3337835 75.55859375 23.3359375 C74.02889383 23.34237476 72.49919511 23.34910379 70.96949768 23.35610962 C67.76438551 23.36806427 64.55938093 23.37179268 61.35424805 23.37060547 C57.28168657 23.3704032 53.20983015 23.39761692 49.13743496 23.43214989 C45.97576342 23.45458891 42.81425645 23.45843775 39.6525135 23.45738602 C38.15325573 23.45971991 36.65399184 23.46841605 35.15481377 23.48405075 C25.90978245 23.57138468 16.36970683 23.42007581 8 19 C7.15379333 16.86117554 7.15379333 16.86117554 7 15 C5.576875 14.9071875 5.576875 14.9071875 4.125 14.8125 C1 14 1 14 -0.4375 12 C-1.21342145 7.86175226 -0.66562914 4.12869966 0 0 Z " fill="#3A90D1" transform="translate(57,160)"/>
<path d="M0 0 C1.32 0.33 2.64 0.66 4 1 C4.12375 1.969375 4.2475 2.93875 4.375 3.9375 C4.58125 4.948125 4.7875 5.95875 5 7 C5.66 7.33 6.32 7.66 7 8 C6.67 8.99 6.34 9.98 6 11 C6.66 11 7.32 11 8 11 C7.99476318 11.69971924 7.98952637 12.39943848 7.98413086 13.12036133 C7.96309174 16.35106475 7.95025534 19.58175366 7.9375 22.8125 C7.92912109 23.91271484 7.92074219 25.01292969 7.91210938 26.14648438 C7.33514136 37.8689452 7.33514136 37.8689452 10 49 C8 52 8 52 5 53 C3.96210419 54.64333504 2.96432076 56.31243867 2 58 C0.3125 59.8125 0.3125 59.8125 -1 61 C-1.99 60.34 -2.98 59.68 -4 59 C-2.76302083 57.33984375 -1.52604167 55.6796875 -0.2890625 54.01953125 C3.03990805 48.80414405 3.30762047 44.28124879 3.30078125 38.26171875 C3.30506638 37.42212112 3.3093515 36.5825235 3.31376648 35.71748352 C3.31949572 33.94488423 3.32002042 32.17226143 3.31567383 30.3996582 C3.31252256 27.70677896 3.33595974 25.01500853 3.36132812 22.32226562 C3.36360234 20.59375137 3.36430405 18.8652342 3.36328125 17.13671875 C3.372491 16.34061691 3.38170074 15.54451508 3.39118958 14.72428894 C3.34610552 9.19396639 2.18995778 5.08311965 0 0 Z " fill="#2485CF" transform="translate(164,114)"/>
<path d="M0 0 C0.99 1.485 0.99 1.485 2 3 C0.3811511 4.6188489 -1.40262805 4.14108647 -3.63989258 4.15771484 C-5.12196953 4.17310806 -5.12196953 4.17310806 -6.63398743 4.18881226 C-8.24795662 4.19976425 -8.24795662 4.19976425 -9.89453125 4.2109375 C-12.15169994 4.23900796 -14.4088613 4.26767243 -16.66601562 4.296875 C-20.24096459 4.3381556 -23.81577712 4.37502415 -27.39086914 4.40136719 C-30.82988091 4.42893442 -34.26826149 4.47481177 -37.70703125 4.5234375 C-38.77693802 4.52669037 -39.84684479 4.52994324 -40.94917297 4.53329468 C-42.44543465 4.55814438 -42.44543465 4.55814438 -43.97192383 4.58349609 C-44.84826981 4.59158295 -45.72461578 4.5996698 -46.6275177 4.60800171 C-49.47135033 5.07787983 -50.79069686 6.20476853 -53 8 C-55.60913873 8.38608751 -58.12300448 8.43745559 -60.7578125 8.49609375 C-63.1863899 8.76589711 -63.1863899 8.76589711 -64.3046875 11.03515625 C-64.53414062 11.68355469 -64.76359375 12.33195312 -65 13 C-65.66 13 -66.32 13 -67 13 C-67.33 13.66 -67.66 14.32 -68 15 C-71.0625 15.625 -71.0625 15.625 -74 16 C-71.50538557 9.61874872 -64.18321053 6.89527393 -58.25 4.1875 C-51.46235886 1.70740035 -44.82974515 1.866966 -37.6953125 1.90234375 C-36.61619598 1.9037587 -35.53707947 1.90517365 -34.42526245 1.90663147 C-30.99181298 1.91221156 -27.55842964 1.92476045 -24.125 1.9375 C-21.79166761 1.94251757 -19.4583342 1.94708003 -17.125 1.95117188 C-11.41664425 1.96217447 -5.70832685 1.97889279 0 2 C0 1.34 0 0.68 0 0 Z " fill="#245986" transform="translate(115,69)"/>
<path d="M0 0 C4.875 1.75 4.875 1.75 6 4 C6 3.01 6 2.02 6 1 C7.32 1 8.64 1 10 1 C14.33960741 9.67921483 8.75625492 21.51467236 6 30 C5.67 30 5.34 30 5 30 C5.33 26.7 5.66 23.4 6 20 C4.68 20 3.36 20 2 20 C2 14.39 2 8.78 2 3 C1.34 2.67 0.68 2.34 0 2 C0 1.34 0 0.68 0 0 Z " fill="#1D86D6" transform="translate(142,18)"/>
<path d="M0 0 C0 0.66 0 1.32 0 2 C-0.9075 2.2475 -1.815 2.495 -2.75 2.75 C-6.04290306 3.75525569 -6.04290306 3.75525569 -8 6.0625 C-10.55860034 8.54114407 -12.51888861 8.68353533 -16 9 C-16.2475 9.886875 -16.495 10.77375 -16.75 11.6875 C-18.05138423 15.13616822 -19.6442512 17.2025483 -22 20 C-23.96306713 23.23411779 -24.35705396 25.9987555 -24.625 29.75 C-24.69976562 30.73484375 -24.77453125 31.7196875 -24.8515625 32.734375 C-24.90054688 33.48203125 -24.94953125 34.2296875 -25 35 C-23.02 35 -21.04 35 -19 35 C-19.66 36.32 -20.32 37.64 -21 39 C-22.32 38.67 -23.64 38.34 -25 38 C-25.2475 38.969375 -25.495 39.93875 -25.75 40.9375 C-26.1625 41.948125 -26.575 42.95875 -27 44 C-29.125 44.875 -29.125 44.875 -31 45 C-31 44.34 -31 43.68 -31 43 C-30.34 43 -29.68 43 -29 43 C-29 42.34 -29 41.68 -29 41 C-28.34 41 -27.68 41 -27 41 C-27.144375 40.26394531 -27.28875 39.52789062 -27.4375 38.76953125 C-27.623125 37.79371094 -27.80875 36.81789062 -28 35.8125 C-28.185625 34.84957031 -28.37125 33.88664062 -28.5625 32.89453125 C-28.96877612 30.2065794 -29.07933572 27.71228981 -29 25 C-28.34 25.66 -27.68 26.32 -27 27 C-26.85304688 26.38253906 -26.70609375 25.76507813 -26.5546875 25.12890625 C-23.96663368 15.35677201 -19.93548591 8.47362864 -11.1796875 3.15234375 C-7.41666759 1.16293358 -4.25966436 0 0 0 Z " fill="#2F70A4" transform="translate(136,17)"/>
<path d="M0 0 C0.66 0 1.32 0 2 0 C1.44271087 3.34373475 0.64826111 6.03312999 -1 9 C0.65 7.68 2.3 6.36 4 5 C5 8 5 8 5 9 C5.66 9 6.32 9 7 9 C6.67 7.35 6.34 5.7 6 4 C9.90028225 1.39981184 13.47434569 1.84914486 18 2 C18 1.34 18 0.68 18 0 C18.66 0.33 19.32 0.66 20 1 C18.68206814 6.66710699 16.51290803 8.66437233 12 12 C11.34 11.67 10.68 11.34 10 11 C11.65 9.02 13.3 7.04 15 5 C11.58301375 6.44071606 9.68041215 8.23230565 7.3125 11.0625 C6.71050781 11.77535156 6.10851562 12.48820312 5.48828125 13.22265625 C4.99714844 13.80917969 4.50601563 14.39570312 4 15 C3 16 3 16 -0.0625 16.0625 C-1.031875 16.041875 -2.00125 16.02125 -3 16 C-3.5683665 3.98010109 -3.5683665 3.98010109 0 0 Z " fill="#2285D2" transform="translate(114,36)"/>
<path d="M0 0 C3.93787261 0.58338854 6.17201647 2.24271605 9 5 C13.05009696 10.95217042 13.62149465 16.44318562 13.5 23.5 C13.51546875 24.39847656 13.5309375 25.29695313 13.546875 26.22265625 C13.50288602 33.77776337 11.60229079 39.56071084 6.25 45 C5.5075 45.66 4.765 46.32 4 47 C3.34 46.67 2.68 46.34 2 46 C2.99 43.69 3.98 41.38 5 39 C5.99 39 6.98 39 8 39 C9.84532714 33.52940419 10.25309068 28.81180072 10.125 23.0625 C10.11597656 22.28326172 10.10695312 21.50402344 10.09765625 20.70117188 C10.07433691 18.80064553 10.03847586 16.90027992 10 15 C8.68 15 7.36 15 6 15 C6.20625 14.278125 6.4125 13.55625 6.625 12.8125 C7.0762929 9.42780326 6.70515071 7.94526031 5 5 C3.36504293 3.94895617 1.70116376 2.94011682 0 2 C0 1.34 0 0.68 0 0 Z " fill="#2A5B84" transform="translate(200,118)"/>
<path d="M0 0 C0.61974535 12.2916162 0.20334449 25.41426216 -8.15234375 35.30859375 C-11.65610724 38.51605589 -15.60044398 41.19019985 -20 43 C-20.99 42.67 -21.98 42.34 -23 42 C-22.175 41.5875 -21.35 41.175 -20.5 40.75 C-19.675 40.1725 -18.85 39.595 -18 39 C-18 37.68 -18 36.36 -18 35 C-16.02 35 -14.04 35 -12 35 C-12 34.34 -12 33.68 -12 33 C-11.01 33 -10.02 33 -9 33 C-9 32.34 -9 31.68 -9 31 C-8.34 31 -7.68 31 -7 31 C-6.896875 29.865625 -6.79375 28.73125 -6.6875 27.5625 C-6.30995273 24.43268786 -5.61724286 21.7554812 -4.5 18.8125 C-2.40787632 12.99537561 -2.32304733 7.13789933 -2 1 C-8.93 0.505 -8.93 0.505 -16 0 C-16 -0.33 -16 -0.66 -16 -1 C-14.46069439 -1.22511584 -12.91831367 -1.42924045 -11.375 -1.625 C-10.08722656 -1.79902344 -10.08722656 -1.79902344 -8.7734375 -1.9765625 C-5.49681419 -2.00425227 -3.04103834 -1.16825813 0 0 Z " fill="#4082B1" transform="translate(155,17)"/>
<path d="M0 0 C0.99 0.33 1.98 0.66 3 1 C-0.17667732 8.79729888 -8.06062891 13.49342971 -15.2722168 17.15307617 C-26.0237427 21.42879541 -37.37810887 20.43442785 -48.75 20.25 C-50.91144177 20.22990261 -53.0729016 20.21165758 -55.234375 20.1953125 C-60.48998224 20.15157837 -65.74490532 20.08492421 -71 20 C-71 19.67 -71 19.34 -71 19 C-69.79988281 18.98018066 -68.59976563 18.96036133 -67.36328125 18.93994141 C-62.88277282 18.86349171 -58.40257257 18.77483678 -53.92236328 18.68261719 C-51.9885062 18.64448935 -50.05458212 18.6096091 -48.12060547 18.578125 C-45.3301611 18.53212077 -42.54017165 18.47418688 -39.75 18.4140625 C-38.89446533 18.40251129 -38.03893066 18.39096008 -37.1574707 18.37905884 C-31.81652335 18.24967949 -27.09071526 17.68205717 -22 16 C-21.34 15.01 -20.68 14.02 -20 13 C-18.0546875 12.70703125 -18.0546875 12.70703125 -15.875 12.8125 C-14.59625 12.874375 -13.3175 12.93625 -12 13 C-12 12.34 -12 11.68 -12 11 C-10.68 10.67 -9.36 10.34 -8 10 C-8 9.34 -8 8.68 -8 8 C-7.01 8 -6.02 8 -5 8 C-5 7.34 -5 6.68 -5 6 C-4.01 5.34 -3.02 4.68 -2 4 C-0.80767387 1.94996045 -0.80767387 1.94996045 0 0 Z " fill="#3C7CAC" transform="translate(186,192)"/>
<path d="M0 0 C2.97098336 0.41455582 5.60559824 0.83041374 8.37109375 2.01953125 C13.26390339 3.84433841 19.15471731 3.9501678 24.12890625 2.2890625 C24.72574219 2.00804687 25.32257813 1.72703125 25.9375 1.4375 C29 0 29 0 31.4375 0.3125 C32.2109375 0.6528125 32.2109375 0.6528125 33 1 C31.6078125 1.680625 31.6078125 1.680625 30.1875 2.375 C26.96078611 3.9421633 26.96078611 3.9421633 24 6 C21.43317988 6.19458614 19.00054851 6.279098 16.4375 6.25 C15.75236328 6.25773438 15.06722656 6.26546875 14.36132812 6.2734375 C9.2533867 6.2533867 9.2533867 6.2533867 7 4 C3.40320934 4.32326553 3.40320934 4.32326553 0 5 C2.38075393 8.96792321 4.67254018 9.68294701 9 11 C9.33 11.66 9.66 12.32 10 13 C10.99 13.66 11.98 14.32 13 15 C7.03301447 14.6270634 2.57444716 12.95418314 -2 9 C-3.1875 6.4375 -3.1875 6.4375 -3 4 C-1.5625 1.6875 -1.5625 1.6875 0 0 Z " fill="#2F6698" transform="translate(96,150)"/>
<path d="M0 0 C3.15896691 1.07867163 4.60774856 2.16842108 6.5625 4.875 C6.1640625 7.515625 6.1640625 7.515625 5.5625 9.875 C7.93766976 9.56375002 10.31263182 9.25103597 12.6875 8.9375 C13.35265625 8.85048828 14.0178125 8.76347656 14.703125 8.67382812 C18.67080188 8.14869442 22.61876998 7.55685986 26.5625 6.875 C22.14924871 11.28825129 17.54974663 12.13511261 11.5625 12.875 C10.2425 12.875 8.9225 12.875 7.5625 12.875 C7.5625 12.215 7.5625 11.555 7.5625 10.875 C6.593125 10.75125 5.62375 10.6275 4.625 10.5 C3.614375 10.29375 2.60375 10.0875 1.5625 9.875 C1.2325 9.215 0.9025 8.555 0.5625 7.875 C-0.2625 7.400625 -1.0875 6.92625 -1.9375 6.4375 C-4.4375 4.875 -4.4375 4.875 -5.4375 1.875 C-2.4375 -0.125 -2.4375 -0.125 0 0 Z " fill="#2B86CB" transform="translate(101.4375,153.125)"/>
<path d="M0 0 C0.57812227 1.9367096 1.06455722 3.90130827 1.5 5.875 C2.31870323 9.56806347 2.88341988 11.82512982 5 15 C5.39013716 16.9896995 5.73202649 18.99019869 6 21 C6.99 21 7.98 21 9 21 C8.938125 21.86625 8.87625 22.7325 8.8125 23.625 C9.02455502 27.44199033 10.12044307 29.71077536 12 33 C5.96048042 30.77002354 3.71030167 24.44029075 1 19 C-0.79449869 14.40686076 -1.95483093 9.89642591 -2.5 5 C-2.665 4.01 -2.83 3.02 -3 2 C-3.99 1.34 -4.98 0.68 -6 0 C-2.25 -1.125 -2.25 -1.125 0 0 Z " fill="#347CB2" transform="translate(29,165)"/>
<path d="M0 0 C2 3 2 3 3.2265625 5.3046875 C7.15048782 12.5168184 11.18688981 16.39562994 19 19 C21.05893621 19.22325814 23.12233653 19.40705759 25.1875 19.5625 C26.27417969 19.64628906 27.36085938 19.73007813 28.48046875 19.81640625 C29.31191406 19.87699219 30.14335938 19.93757813 31 20 C31 20.33 31 20.66 31 21 C28.47886908 21.05447822 25.9589415 21.09389852 23.4375 21.125 C22.73302734 21.14175781 22.02855469 21.15851563 21.30273438 21.17578125 C16.48108178 21.22022044 12.57702562 20.52768004 8 19 C7.67 17.68 7.34 16.36 7 15 C5.576875 14.9071875 5.576875 14.9071875 4.125 14.8125 C1 14 1 14 -0.4375 12 C-1.21342145 7.86175226 -0.66562914 4.12869966 0 0 Z " fill="#2867B8" transform="translate(57,160)"/>
<path d="M0 0 C1.32 0.33 2.64 0.66 4 1 C4.12375 1.969375 4.2475 2.93875 4.375 3.9375 C4.58125 4.948125 4.7875 5.95875 5 7 C5.66 7.33 6.32 7.66 7 8 C6.90646894 13.07234884 6.80037625 18.14422013 6.68261719 23.21606445 C6.64432655 24.94157708 6.60947379 26.66716956 6.578125 28.39282227 C6.53247596 30.87284895 6.47448219 33.35232591 6.4140625 35.83203125 C6.40251129 36.60400345 6.39096008 37.37597565 6.37905884 38.17134094 C6.27478727 41.95246674 6.1465411 43.78018835 4 47 C3.98541748 45.86046875 3.97083496 44.7209375 3.95581055 43.546875 C3.8975218 39.28989413 3.82029238 35.0334254 3.73754883 30.77685547 C3.70444262 28.94002642 3.67636683 27.10309914 3.65356445 25.26611328 C3.61975369 22.61448589 3.56742707 19.96374717 3.51171875 17.3125 C3.50213387 16.09481934 3.50213387 16.09481934 3.49235535 14.85253906 C3.35158597 9.30398399 2.19244608 5.10464745 0 0 Z " fill="#3A86BF" transform="translate(164,114)"/>
<path d="M0 0 C0.9445253 0.00141495 1.8890506 0.0028299 2.86219788 0.00428772 C5.85738388 0.00985265 8.85249312 0.02239858 11.84765625 0.03515625 C13.88736871 0.04017579 15.92708234 0.0447379 17.96679688 0.04882812 C22.94794591 0.05981058 27.9290381 0.07705085 32.91015625 0.09765625 C28.85922944 2.26779561 25.3880116 3.20486649 20.8034668 3.28710938 C20.00551193 3.3038269 19.20755707 3.32054443 18.38542175 3.33776855 C17.53120132 3.35134399 16.6769809 3.36491943 15.796875 3.37890625 C14.90909866 3.39731567 14.02132233 3.4157251 13.10664368 3.43469238 C10.27038079 3.49334116 7.43405761 3.54616843 4.59765625 3.59765625 C0.87227885 3.66566195 -2.8529239 3.73940735 -6.578125 3.81640625 C-7.42627274 3.82998169 -8.27442047 3.84355713 -9.14826965 3.85754395 C-13.88272258 3.95557125 -18.4170879 4.32180838 -23.08984375 5.09765625 C-22.08984375 3.09765625 -22.08984375 3.09765625 -19.96484375 2.03515625 C-13.41643697 -0.10019379 -6.80822122 -0.03885171 0 0 Z " fill="#3690D4" transform="translate(131.08984375,207.90234375)"/>
<path d="M0 0 C2.12472576 -0.05386629 4.24983652 -0.09273071 6.375 -0.125 C7.55835937 -0.14820313 8.74171875 -0.17140625 9.9609375 -0.1953125 C13 0 13 0 15 2 C15.22705078 4.33837891 15.22705078 4.33837891 15.1953125 7.2265625 C15.18564453 8.7734375 15.18564453 8.7734375 15.17578125 10.3515625 C15.15902344 11.43179688 15.14226562 12.51203125 15.125 13.625 C15.11597656 14.71296875 15.10695313 15.8009375 15.09765625 16.921875 C15.07403409 19.61480152 15.04109556 22.30729255 15 25 C15.66 25.33 16.32 25.66 17 26 C16.01 26 15.02 26 14 26 C11.54846925 21.26101734 11.76845794 16.87937667 11.875 11.6875 C11.88402344 10.85154297 11.89304687 10.01558594 11.90234375 9.15429688 C11.92579011 7.10274031 11.96165734 5.05133223 12 3 C9.84375 2.8125 9.84375 2.8125 7.6875 2.625 C4.19426202 2.32124018 3.03525486 2.02350324 0 0 Z " fill="#2F6B9D" transform="translate(57,209)"/>
<path d="M0 0 C2.64 0.33 5.28 0.66 8 1 C8 1.99 8 2.98 8 4 C10.475 4.99 10.475 4.99 13 6 C13.33 8.31 13.66 10.62 14 13 C11.69 12.67 9.38 12.34 7 12 C7 11.34 7 10.68 7 10 C6.34 10 5.68 10 5 10 C4.731875 9.360625 4.46375 8.72125 4.1875 8.0625 C3.11332248 5.66868314 3.11332248 5.66868314 0 5 C0 3.35 0 1.7 0 0 Z " fill="#2086D1" transform="translate(139,124)"/>
<path d="M0 0 C4.49823356 -0.10002059 8.99585192 -0.17200172 13.49487305 -0.21972656 C15.02037859 -0.23965311 16.54580968 -0.26680485 18.07104492 -0.30175781 C29.09064121 -0.54768251 39.02287226 -0.17143528 48 7 C46.60301364 6.71390693 45.2074567 6.42083095 43.8125 6.125 C43.03519531 5.96257812 42.25789063 5.80015625 41.45703125 5.6328125 C39 5 39 5 36.828125 3.98632812 C33.30298866 2.75691248 29.98351163 2.64718534 26.29296875 2.5859375 C25.56757401 2.56657135 24.84217926 2.5472052 24.09480286 2.5272522 C21.79248578 2.46777892 19.49011781 2.42120155 17.1875 2.375 C15.62042168 2.33679042 14.05336369 2.29773697 12.48632812 2.2578125 C8.65771848 2.16210437 4.82901058 2.07795552 1 2 C0.67 1.34 0.34 0.68 0 0 Z " fill="#265C85" transform="translate(128,71)"/>
<path d="M0 0 C3.95781786 0.27612683 5.69956508 0.74053348 8.75 3.375 C11.50124013 6.58478015 12.91864808 8.24071538 13.375 12.5 C13 16 13 16 11.3125 18 C9 19 9 19 6.4375 19 C3.21394047 17.67751404 2.44109055 16.10972172 1 13 C1 12.34 1 11.68 1 11 C-0.65 11 -2.3 11 -4 11 C-4 10.67 -4 10.34 -4 10 C-0.6875 9.6875 -0.6875 9.6875 3 10 C4.625 12.4375 4.625 12.4375 6 15 C8.59122743 15.88658466 8.59122743 15.88658466 11 16 C9.52988355 8.79642942 6.13680485 4.09120323 0 0 Z " fill="#3577A5" transform="translate(85,121)"/>
<path d="M0 0 C0 0.99 0 1.98 0 3 C-3.73925098 5.49283399 -6.33362335 5.31914789 -10.72265625 5.4609375 C-13.18228373 5.7647524 -13.18228373 5.7647524 -14.30859375 8.0390625 C-14.53675781 8.68617187 -14.76492187 9.33328125 -15 10 C-15.66 10 -16.32 10 -17 10 C-17.33 10.66 -17.66 11.32 -18 12 C-21.0625 12.625 -21.0625 12.625 -24 13 C-21.49610417 6.59500679 -14.1217818 3.88300321 -8.1875 1.125 C-5.18856347 0.06655181 -3.14130649 -0.28557332 0 0 Z " fill="#2D78B4" transform="translate(65,72)"/>
<path d="M0 0 C-0.53109375 0.24234375 -1.0621875 0.4846875 -1.609375 0.734375 C-7.49608593 3.46413781 -7.49608593 3.46413781 -12 8 C-12.80765878 11.64721696 -12.80765878 11.64721696 -13 15 C-10.69 15 -8.38 15 -6 15 C-5.67 13.68 -5.34 12.36 -5 11 C-4.67 11.66 -4.34 12.32 -4 13 C-5.3816075 16.14699485 -6.2095385 17.6757081 -9.4375 19 C-12 19 -12 19 -14.3125 17.9375 C-16 16 -16 16 -16.4375 13.1875 C-15.71750573 7.94182749 -14.2490173 4.98326894 -10.0625 1.6875 C-4.36153846 -1.45384615 -4.36153846 -1.45384615 0 0 Z " fill="#3C78AA" transform="translate(85,121)"/>
<path d="M0 0 C3.87493616 -0.05834395 7.74975836 -0.09371201 11.625 -0.125 C13.26662109 -0.15013672 13.26662109 -0.15013672 14.94140625 -0.17578125 C20.3964913 -0.20884237 24.88545107 -0.12552683 30 2 C32.75065232 2.16857483 32.75065232 2.16857483 35 2 C38.07692308 8.4 38.07692308 8.4 37.6875 11.4375 C37.460625 11.953125 37.23375 12.46875 37 13 C36.54625 12.278125 36.0925 11.55625 35.625 10.8125 C30.12699276 4.92177796 22.40806629 2.05984097 14.453125 1.68359375 C13.60878906 1.64169922 12.76445312 1.59980469 11.89453125 1.55664062 C11.02183594 1.51732422 10.14914063 1.47800781 9.25 1.4375 C7.91775391 1.37272461 7.91775391 1.37272461 6.55859375 1.30664062 C4.37254037 1.20086385 2.18637911 1.09877454 0 1 C0 0.67 0 0.34 0 0 Z " fill="#3070A2" transform="translate(126,101)"/>
<path d="M0 0 C3.11053699 0.74671912 6.11817558 1.59768365 9 3 C9.33 3.66 9.66 4.32 10 5 C8.3603125 4.5359375 8.3603125 4.5359375 6.6875 4.0625 C1.51723677 2.7536901 -3.69261392 2.37073653 -9 2 C-9.28248479 6.6139182 -9.46558414 10.57196044 -7.4375 14.8125 C-6 18 -6 18 -6.3125 20.4375 C-6.539375 20.953125 -6.76625 21.46875 -7 22 C-10.77449695 15.66858576 -12.54024746 11.56346445 -12 4 C-9.89027017 -1.48529756 -5.039767 -0.67144231 0 0 Z " fill="#2B4B71" transform="translate(92,32)"/>
<path d="M0 0 C0 0.99 0 1.98 0 3 C-6.78076434 5.08693693 -12.87824143 5.18813114 -19.9375 4.9765625 C-21.05817871 4.95153656 -22.17885742 4.92651062 -23.33349609 4.90072632 C-26.8893268 4.81899556 -30.44456259 4.72222463 -34 4.625 C-36.42054914 4.56671253 -38.84112222 4.50941033 -41.26171875 4.453125 C-47.17480397 4.31348694 -53.08747422 4.16152085 -59 4 C-59 3.67 -59 3.34 -59 3 C-58.38914047 2.99191315 -57.77828094 2.98382629 -57.14891052 2.97549438 C-50.77313938 2.88922875 -44.39767129 2.78971604 -38.0222168 2.68261719 C-35.64499005 2.644408 -33.26770708 2.60954125 -30.89038086 2.578125 C-27.46708119 2.53229961 -24.04416589 2.47433332 -20.62109375 2.4140625 C-19.56353378 2.40251129 -18.50597382 2.39096008 -17.41636658 2.37905884 C-11.47954412 2.26115601 -5.67125191 0 0 0 Z " fill="#3C7BAD" transform="translate(154,178)"/>
<path d="M0 0 C0.66 0.33 1.32 0.66 2 1 C0.68206814 6.66710699 -1.48709197 8.66437233 -6 12 C-6.66 11.67 -7.32 11.34 -8 11 C-6.35 9.02 -4.7 7.04 -3 5 C-6.81684226 6.55500981 -9.19195732 9.03595495 -12 12 C-12 9.36 -12 6.72 -12 4 C-8.09971775 1.39981184 -4.52565431 1.84914486 0 2 C0 1.34 0 0.68 0 0 Z " fill="#2D6CA5" transform="translate(132,36)"/>
<path d="M0 0 C0.33 0 0.66 0 1 0 C1 4.29 1 8.58 1 13 C2.98 13 4.96 13 7 13 C6.34 14.32 5.68 15.64 5 17 C3.68 16.67 2.36 16.34 1 16 C0.7525 16.969375 0.505 17.93875 0.25 18.9375 C-0.1625 19.948125 -0.575 20.95875 -1 22 C-3.125 22.875 -3.125 22.875 -5 23 C-5 22.34 -5 21.68 -5 21 C-4.34 21 -3.68 21 -3 21 C-3 20.34 -3 19.68 -3 19 C-2.34 19 -1.68 19 -1 19 C-1.144375 18.26394531 -1.28875 17.52789062 -1.4375 16.76953125 C-1.623125 15.79371094 -1.80875 14.81789063 -2 13.8125 C-2.185625 12.84957031 -2.37125 11.88664062 -2.5625 10.89453125 C-2.96877612 8.2065794 -3.07933572 5.71228981 -3 3 C-2.34 3.66 -1.68 4.32 -1 5 C-0.67 3.35 -0.34 1.7 0 0 Z " fill="#2A587F" transform="translate(110,39)"/>
<path d="M0 0 C0.79481277 0.02361099 1.58962555 0.04722198 2.40852356 0.07154846 C4.94571224 0.14808726 7.48258815 0.23215353 10.01953125 0.31640625 C11.7402191 0.36963674 13.46092219 0.42237708 15.18164062 0.47460938 C19.39863536 0.60368914 23.6153651 0.73952016 27.83203125 0.87890625 C27.83203125 1.20890625 27.83203125 1.53890625 27.83203125 1.87890625 C26.53954468 1.90078003 26.53954468 1.90078003 25.22094727 1.9230957 C21.9832875 1.98463494 18.74622197 2.05887408 15.5090332 2.14135742 C14.11558763 2.17433933 12.72201703 2.20245192 11.32836914 2.2253418 C3.33879247 2.36007811 -3.70322782 2.87309854 -11.16796875 5.87890625 C-12.49612641 6.23229856 -13.82845947 6.57132896 -15.16796875 6.87890625 C-14.83796875 6.21890625 -14.50796875 5.55890625 -14.16796875 4.87890625 C-13.50796875 4.87890625 -12.84796875 4.87890625 -12.16796875 4.87890625 C-12.06484375 4.23953125 -11.96171875 3.60015625 -11.85546875 2.94140625 C-11.62859375 2.26078125 -11.40171875 1.58015625 -11.16796875 0.87890625 C-7.38233305 -0.38297232 -3.93114426 -0.13767172 0 0 Z " fill="#3370A4" transform="translate(83.16796875,100.12109375)"/>
<path d="M0 0 C-1.175625 0.12375 -1.175625 0.12375 -2.375 0.25 C-3.24125 0.4975 -4.1075 0.745 -5 1 C-5.25136719 1.56847656 -5.50273438 2.13695312 -5.76171875 2.72265625 C-7.57715019 6.06144656 -10.44621384 7.9611985 -13.4375 10.1875 C-14.02337891 10.63802734 -14.60925781 11.08855469 -15.21289062 11.55273438 C-17.78873274 13.50288953 -19.91455304 14.97151768 -23 16 C-23 15.01 -23 14.02 -23 13 C-22.01 13 -21.02 13 -20 13 C-19.7525 12.21625 -19.505 11.4325 -19.25 10.625 C-17.84610901 7.67682892 -16.99324263 7.0975223 -14 6 C-14 5.34 -14 4.68 -14 4 C-12.35 4.33 -10.7 4.66 -9 5 C-8.9175 4.38125 -8.835 3.7625 -8.75 3.125 C-8 1 -8 1 -6.1875 -0.3125 C-3.67700322 -1.10151327 -2.44507934 -0.87324262 0 0 Z " fill="#2B6194" transform="translate(114,213)"/>
<path d="M0 0 C1 3 1 3 -0.08203125 5.26953125 C-4.3332545 11.51681417 -8.81577315 16.22427599 -16 19 C-16.99 18.67 -17.98 18.34 -19 18 C-18.175 17.5875 -17.35 17.175 -16.5 16.75 C-15.675 16.1725 -14.85 15.595 -14 15 C-14 13.68 -14 12.36 -14 11 C-12.02 11 -10.04 11 -8 11 C-8 10.34 -8 9.68 -8 9 C-7.01 9 -6.02 9 -5 9 C-5 8.34 -5 7.68 -5 7 C-4.34 7 -3.68 7 -3 7 C-2.87625 6.401875 -2.7525 5.80375 -2.625 5.1875 C-2 3 -2 3 0 0 Z " fill="#2C71A8" transform="translate(151,41)"/>
<path d="M0 0 C1 2 1 2 0.29296875 4.171875 C-0.07183594 5.02265625 -0.43664063 5.8734375 -0.8125 6.75 C-2.04878826 9.68565357 -3.16411634 12.51970174 -4.125 15.5625 C-5 18 -5 18 -7 19 C-7.66 18.34 -8.32 17.68 -9 17 C-8.66769102 13.00551048 -7.14798335 10.18292664 -5.0625 6.8125 C-4.53785156 5.95269531 -4.01320313 5.09289062 -3.47265625 4.20703125 C-2 2 -2 2 0 0 Z " fill="#2A75B2" transform="translate(39,85)"/>
<path d="M0 0 C1.29449495 3.88348484 1.13203312 6.90697336 1 11 C0 12 0 12 -2.5 12.125 C-5 12 -5 12 -6 11 C-6.04063832 9.33382885 -6.042721 7.66611905 -6 6 C-5.34 6 -4.68 6 -4 6 C-3.71125 5.195625 -3.4225 4.39125 -3.125 3.5625 C-2 1 -2 1 0 0 Z " fill="#2288D4" transform="translate(135,125)"/>
<path d="M0 0 C0.33 0.66 0.66 1.32 1 2 C0.67 2.99 0.34 3.98 0 5 C-0.2173955 7.06266705 -0.3894543 9.13025111 -0.53515625 11.19921875 C-0.62216797 12.40771484 -0.70917969 13.61621094 -0.79882812 14.86132812 C-0.88583984 16.12396484 -0.97285156 17.38660156 -1.0625 18.6875 C-1.15337891 19.96173828 -1.24425781 21.23597656 -1.33789062 22.54882812 C-1.56205947 25.69899026 -1.78261653 28.84936354 -2 32 C-2.33 32 -2.66 32 -3 32 C-3.07420211 27.92497206 -3.1286257 23.85020608 -3.16479492 19.7746582 C-3.17987397 18.38852081 -3.2003405 17.00243106 -3.22631836 15.61645508 C-3.26273716 13.62341854 -3.27813018 11.63003277 -3.29296875 9.63671875 C-3.31653442 7.83787231 -3.31653442 7.83787231 -3.34057617 6.00268555 C-3 3 -3 3 -1.48168945 1.08520508 C-0.99273193 0.7270874 -0.50377441 0.36896973 0 0 Z " fill="#33719F" transform="translate(58,118)"/>
<path d="M0 0 C4.29 1.32 8.58 2.64 13 4 C10 6 10 6 8 7 C7.27306096 8.97888961 6.60183749 10.97954558 6 13 C4.58622659 10.36095629 3.62759865 7.92879371 3 5 C1.68 4.67 0.36 4.34 -1 4 C-0.67 2.68 -0.34 1.36 0 0 Z " fill="#2A6DA8" transform="translate(119,56)"/>
<path d="M0 0 C0.99 0 1.98 0 3 0 C3 1.32 3 2.64 3 4 C2.34 4 1.68 4 1 4 C3.38075393 7.96792321 5.67254018 8.68294701 10 10 C10.33 10.66 10.66 11.32 11 12 C11.99 12.66 12.98 13.32 14 14 C8.04213658 13.62763354 3.56015092 11.96246124 -1 8 C-2.125 5.375 -2.125 5.375 -2 3 C-1.34 2.01 -0.68 1.02 0 0 Z " fill="#4385BE" transform="translate(95,151)"/>
<path d="M0 0 C0.66 0.99 1.32 1.98 2 3 C1.13671875 5.171875 1.13671875 5.171875 -0.3125 7.75 C-3.77734403 14.7644261 -3.88547278 21.28503011 -4 29 C-4.33 29 -4.66 29 -5 29 C-5.74129657 8.7584853 -5.74129657 8.7584853 -1 1 C-0.67 0.67 -0.34 0.34 0 0 Z " fill="#214A72" transform="translate(17,122)"/>
<path d="M0 0 C0.99 0 1.98 0 3 0 C3 7.59 3 15.18 3 23 C0.44729911 20.44729911 0.08636931 18.53273025 -0.11352539 14.98535156 C-0.10828857 14.2940918 -0.10305176 13.60283203 -0.09765625 12.890625 C-0.09443359 12.13652344 -0.09121094 11.38242188 -0.08789062 10.60546875 C-0.07951172 9.82816406 -0.07113281 9.05085937 -0.0625 8.25 C-0.05798828 7.45722656 -0.05347656 6.66445312 -0.04882812 5.84765625 C-0.03708565 3.89840492 -0.01915146 1.94919262 0 0 Z " fill="#408DC2" transform="translate(54,141)"/>
<path d="M0 0 C2.34757468 3.52136202 3.09027228 6.75593069 4.12109375 10.8203125 C4.41113281 11.53960937 4.70117188 12.25890625 5 13 C5.99 13.33 6.98 13.66 8 14 C8 14.99 8 15.98 8 17 C6.68 16.34 5.36 15.68 4 15 C4 14.34 4 13.68 4 13 C3.01 12.67 2.02 12.34 1 12 C-0.8125 9.3125 -0.8125 9.3125 -2 6 C-1.1875 2.625 -1.1875 2.625 0 0 Z " fill="#2F74AC" transform="translate(15,148)"/>
<path d="M0 0 C3.9018921 0.57805809 6.13461258 2.355027 9 5 C10.875 7.5625 10.875 7.5625 12 10 C11.67 10.99 11.34 11.98 11 13 C11 12.34 11 11.68 11 11 C10.34 11 9.68 11 9 11 C8.67 12.32 8.34 13.64 8 15 C7.34 15 6.68 15 6 15 C6.20625 14.278125 6.4125 13.55625 6.625 12.8125 C7.0762929 9.42780326 6.70515071 7.94526031 5 5 C3.36504293 3.94895617 1.70116376 2.94011682 0 2 C0 1.34 0 0.68 0 0 Z " fill="#2770A7" transform="translate(200,118)"/>
<path d="M0 0 C3.11547441 0.67883043 5.85137721 1.74106902 8.75 3.0625 C9.54921875 3.42472656 10.3484375 3.78695312 11.171875 4.16015625 C11.77515625 4.43730469 12.3784375 4.71445313 13 5 C12.67 6.32 12.34 7.64 12 9 C7.88663907 7.54822555 4.49166855 5.61875142 1 3 C0.67 2.01 0.34 1.02 0 0 Z " fill="#317ABB" transform="translate(41,198)"/>
<path d="M0 0 C0.33 0 0.66 0 1 0 C1.78774617 8.03501094 1.78774617 8.03501094 -1.5 12.0625 C-2.325 12.701875 -3.15 13.34125 -4 14 C-4.99 13.34 -5.98 12.68 -7 12 C-6.21625 10.948125 -5.4325 9.89625 -4.625 8.8125 C-2.59491421 5.98303198 -1.10887021 3.32661064 0 0 Z " fill="#2F6F9E" transform="translate(167,161)"/>
<path d="M0 0 C0.33 0.99 0.66 1.98 1 3 C-1.21689281 6.85903564 -3.74480375 9.97731777 -7 13 C-7.66 12.67 -8.32 12.34 -9 12 C-8.01 9.69 -7.02 7.38 -6 5 C-5.01 5 -4.02 5 -3 5 C-2.814375 4.0409375 -2.814375 4.0409375 -2.625 3.0625 C-2.41875 2.381875 -2.2125 1.70125 -2 1 C-1.34 0.67 -0.68 0.34 0 0 Z " fill="#2D77B8" transform="translate(211,152)"/>
<path d="M0 0 C0 3.48961209 -0.90379374 5.11480295 -2.5 8.1875 C-2.9640625 9.08855469 -3.428125 9.98960938 -3.90625 10.91796875 C-4.2671875 11.60503906 -4.628125 12.29210938 -5 13 C-5.99 12.67 -6.98 12.34 -8 12 C-7.58388059 7.1452735 -5.54108048 5.19560921 -2 2 C-1.34 1.34 -0.68 0.68 0 0 Z " fill="#3584C2" transform="translate(128,45)"/>
<path d="M0 0 C0.763125 0.20625 1.52625 0.4125 2.3125 0.625 C1.9825 2.275 1.6525 3.925 1.3125 5.625 C-0.5 6.3125 -0.5 6.3125 -2.6875 6.625 C-4.4375 5.3125 -4.4375 5.3125 -5.6875 3.625 C-5.6875 2.965 -5.6875 2.305 -5.6875 1.625 C-2.6875 -0.375 -2.6875 -0.375 0 0 Z " fill="#208AD7" transform="translate(101.6875,153.375)"/>
<path d="M0 0 C1.65 0 3.3 0 5 0 C4.01 0.66 3.02 1.32 2 2 C1.26864588 5.04335724 1.26864588 5.04335724 0.9375 8.5 C0.20650814 14.79349186 0.20650814 14.79349186 -2 17 C-2.3690205 5.47835991 -2.3690205 5.47835991 0 0 Z " fill="#2F5E8A" transform="translate(197,165)"/>
<path d="M0 0 C2.3125 0.75 2.3125 0.75 3.3125 1.75 C3.35313832 3.41617115 3.355221 5.08388095 3.3125 6.75 C1.3325 7.74 1.3325 7.74 -0.6875 8.75 C-0.3575 7.43 -0.0275 6.11 0.3125 4.75 C-1.9975 4.09 -4.3075 3.43 -6.6875 2.75 C-4.28017516 0.52099552 -3.34709579 -0.31135775 0 0 Z " fill="#3C84B7" transform="translate(128.6875,151.25)"/>
<path d="M0 0 C-4.99065252 3.32710168 -10.92111612 5.58827908 -17 5 C-17 4.34 -17 3.68 -17 3 C-4.625 -1.125 -4.625 -1.125 0 0 Z " fill="#286399" transform="translate(173,207)"/>
<path d="M0 0 C0.66 0.99 1.32 1.98 2 3 C2.43699219 3.65097656 2.87398437 4.30195313 3.32421875 4.97265625 C3.77410156 5.66230469 4.22398438 6.35195312 4.6875 7.0625 C5.14511719 7.75472656 5.60273437 8.44695312 6.07421875 9.16015625 C6.37972656 9.76730469 6.68523438 10.37445313 7 11 C6.67 11.66 6.34 12.32 6 13 C4.02 12.34 2.04 11.68 0 11 C-1.28571429 3.57142857 -1.28571429 3.57142857 0 0 Z " fill="#2A6D99" transform="translate(57,160)"/>
<path d="M0 0 C2.45840605 -0.02691685 4.91651882 -0.04679802 7.375 -0.0625 C8.07367188 -0.07087891 8.77234375 -0.07925781 9.4921875 -0.08789062 C14.7734375 -0.11328125 14.7734375 -0.11328125 17 1 C16.67 1.99 16.34 2.98 16 4 C16 3.34 16 2.68 16 2 C14.68 2 13.36 2 12 2 C12 2.99 12 3.98 12 5 C10 4 10 4 7 2 C4.66800612 1.92094936 2.33167378 1.91201231 0 2 C0 1.34 0 0.68 0 0 Z " fill="#2E8DD2" transform="translate(136,17)"/>
<path d="M0 0 C-4.38786461 4.24115789 -7.87524046 7.0577293 -14 8 C-14.99 7.34 -15.98 6.68 -17 6 C-12.545 5.505 -12.545 5.505 -8 5 C-7.67 3.68 -7.34 2.36 -7 1 C-4.09342573 -1.03460199 -3.47133392 -1.15711131 0 0 Z " fill="#366AA0" transform="translate(91,230)"/>
<path d="M0 0 C3.3 0 6.6 0 10 0 C10 0.33 10 0.66 10 1 C9.40832031 1.10957031 8.81664063 1.21914062 8.20703125 1.33203125 C3.64709829 2.24699333 -0.26819181 3.05978749 -4 6 C-5.32793606 8.06700655 -5.32793606 8.06700655 -6 10 C-6.66 10 -7.32 10 -8 10 C-8 8.68 -8 7.36 -8 6 C-7.34 6 -6.68 6 -6 6 C-5.67 5.01 -5.34 4.02 -5 3 C-3.35 2.67 -1.7 2.34 0 2 C0 1.34 0 0.68 0 0 Z " fill="#2485CD" transform="translate(111,208)"/>
<path d="M0 0 C0.33 0 0.66 0 1 0 C1.25 2.8125 1.25 2.8125 1 6 C-0.6875 7.9375 -0.6875 7.9375 -3 9 C-6.37036311 8.75925978 -7.58798021 8.41201979 -10 6 C-9.67 5.01 -9.34 4.02 -9 3 C-9 3.66 -9 4.32 -9 5 C-6.03 5 -3.06 5 0 5 C0 3.35 0 1.7 0 0 Z " fill="#38719D" transform="translate(155,131)"/>
<path d="M0 0 C1.65 0.33 3.3 0.66 5 1 C4.60167969 1.45890625 4.20335938 1.9178125 3.79296875 2.390625 C1.08857938 5.52271585 -1.57991771 8.63877459 -4 12 C-4 10.35 -4 8.7 -4 7 C-3.34 7 -2.68 7 -2 7 C-2 5.35 -2 3.7 -2 2 C-1.34 2 -0.68 2 0 2 C0 1.34 0 0.68 0 0 Z " fill="#2A6391" transform="translate(63,106)"/>
<path d="M0 0 C2.42581871 2.42581871 2.96355664 4.07433869 3.09765625 7.48046875 C3.08605469 8.37378906 3.07445312 9.26710938 3.0625 10.1875 C3.05347656 11.08855469 3.04445312 11.98960938 3.03515625 12.91796875 C3.02355469 13.60503906 3.01195312 14.29210937 3 15 C3.66 15.33 4.32 15.66 5 16 C4.01 16 3.02 16 2 16 C-0.27141454 10.60539047 -0.20413361 5.73842251 0 0 Z " fill="#316493" transform="translate(195,102)"/>
<path d="M0 0 C2 2 2 2 2.1953125 4.1640625 C2.17210937 4.97617188 2.14890625 5.78828125 2.125 6.625 C2.10695312 7.44226563 2.08890625 8.25953125 2.0703125 9.1015625 C2.03550781 10.04128906 2.03550781 10.04128906 2 11 C0.68 11 -0.64 11 -2 11 C-2.625 8.625 -2.625 8.625 -3 6 C-2.34 5.34 -1.68 4.68 -1 4 C-0.3574765 1.93125966 -0.3574765 1.93125966 0 0 Z " fill="#287FC1" transform="translate(193,97)"/>
<path d="M0 0 C0.33 0 0.66 0 1 0 C1.33 3.3 1.66 6.6 2 10 C3.32 9.67 4.64 9.34 6 9 C6.33 7.68 6.66 6.36 7 5 C7.99 5 8.98 5 10 5 C7.125 9.875 7.125 9.875 6 11 C4.00041636 11.04080783 1.99954746 11.04254356 0 11 C0 7.37 0 3.74 0 0 Z " fill="#4185BE" transform="translate(111,41)"/>
<path d="M0 0 C-5.1796805 3.34521032 -8.82224048 4.69617576 -15 5 C-16.3427886 4.70707055 -17.68018092 4.38336208 -19 4 C-18.39671875 3.87882813 -17.7934375 3.75765625 -17.171875 3.6328125 C-16.37265625 3.46523437 -15.5734375 3.29765625 -14.75 3.125 C-13.96109375 2.96257812 -13.1721875 2.80015625 -12.359375 2.6328125 C-10.02071578 2.00555622 -8.12204047 1.15170572 -6 0 C-3.50907189 -1.24546405 -2.58919267 -0.7767578 0 0 Z " fill="#285981" transform="translate(128,161)"/>
<path d="M0 0 C-0.33 0.99 -0.66 1.98 -1 3 C-1.66 3 -2.32 3 -3 3 C-3.33 4.32 -3.66 5.64 -4 7 C-5.98 7.33 -7.96 7.66 -10 8 C-8.48502075 3.75805811 -4.70198172 0 0 0 Z " fill="#306A99" transform="translate(51,77)"/>
<path d="M0 0 C3.3 0 6.6 0 10 0 C10 0.99 10 1.98 10 3 C10.66 3.66 11.32 4.32 12 5 C7.25081338 4.53439347 3.89217595 3.83067342 0 1 C0 0.67 0 0.34 0 0 Z " fill="#266091" transform="translate(89,57)"/>
<path d="M0 0 C-0.17298401 2.33528415 -0.70225369 3.69177582 -2.33203125 5.37890625 C-6.57211538 9 -6.57211538 9 -9 9 C-9 8.01 -9 7.02 -9 6 C-8.01 6 -7.02 6 -6 6 C-5.71125 5.195625 -5.4225 4.39125 -5.125 3.5625 C-3.81204892 0.57188921 -3.2474503 0 0 0 Z " fill="#326FA0" transform="translate(100,220)"/>
<path d="M0 0 C5.01202555 2.98334854 8.38748484 6.43951988 12 11 C10.35 10.67 8.7 10.34 7 10 C6.67 9.01 6.34 8.02 6 7 C5.01 7.495 5.01 7.495 4 8 C3.896875 7.38125 3.79375 6.7625 3.6875 6.125 C3.12474627 3.63473516 3.12474627 3.63473516 0 2 C0 1.34 0 0.68 0 0 Z " fill="#28537B" transform="translate(177,78)"/>
<path d="M0 0 C3.875 1.75 3.875 1.75 5 4 C3 7 3 7 0 8 C-1.125 2.25 -1.125 2.25 0 0 Z " fill="#258CDC" transform="translate(169,159)"/>
<path d="M0 0 C0.33 1.32 0.66 2.64 1 4 C1.99 4 2.98 4 4 4 C4.99 5.485 4.99 5.485 6 7 C8.05003955 8.19232613 8.05003955 8.19232613 10 9 C10 9.66 10 10.32 10 11 C9.01 11 8.02 11 7 11 C7 10.34 7 9.68 7 9 C4.36 8.34 1.72 7.68 -1 7 C-0.67 4.69 -0.34 2.38 0 0 Z " fill="#2C87CF" transform="translate(196,114)"/>
<path d="M0 0 C1.09658936 3.28976808 0.79953138 4.71303767 0 8 C-1.65 7.67 -3.3 7.34 -5 7 C-4.1875 4.0625 -4.1875 4.0625 -3 1 C-2.01 0.67 -1.02 0.34 0 0 Z " fill="#2B87CF" transform="translate(43,84)"/>
<path d="M0 0 C0.99 0 1.98 0 3 0 C2.67 0.86625 2.34 1.7325 2 2.625 C1.01268659 5.95718275 0.83579026 8.55159538 1 12 C-0.55078125 10.79296875 -0.55078125 10.79296875 -2 9 C-1.85546875 6.73828125 -1.85546875 6.73828125 -1.1875 4.3125 C-0.97480469 3.50425781 -0.76210937 2.69601563 -0.54296875 1.86328125 C-0.36378906 1.24839844 -0.18460937 0.63351563 0 0 Z " fill="#3978BE" transform="translate(117,60)"/>
<path d="M0 0 C0.33 0.99 0.66 1.98 1 3 C-0.43359375 5.48046875 -0.43359375 5.48046875 -2.4375 8.1875 C-3.09621094 9.08855469 -3.75492188 9.98960938 -4.43359375 10.91796875 C-5.20896484 11.94857422 -5.20896484 11.94857422 -6 13 C-6.66 12.67 -7.32 12.34 -8 12 C-8 11.01 -8 10.02 -8 9 C-7.01 9 -6.02 9 -5 9 C-5 8.34 -5 7.68 -5 7 C-4.34 7 -3.68 7 -3 7 C-2.814375 6.1028125 -2.814375 6.1028125 -2.625 5.1875 C-2 3 -2 3 0 0 Z " fill="#29567C" transform="translate(151,41)"/>
<path d="M0 0 C5.77378925 0.4811491 9.95859836 2.18467181 15 5 C11.26221645 6.24592785 10.0089867 5.54425229 6.375 4.1875 C4.90160156 3.65189453 4.90160156 3.65189453 3.3984375 3.10546875 C1 2 1 2 0 0 Z " fill="#2A648E" transform="translate(161,72)"/>
<path d="M0 0 C1.79133978 -0.05391993 3.58313899 -0.09275571 5.375 -0.125 C6.37273437 -0.14820313 7.37046875 -0.17140625 8.3984375 -0.1953125 C11 0 11 0 13 2 C12.01 2.33 11.02 2.66 10 3 C9.67 2.67 9.34 2.34 9 2 C7.65252916 1.76924918 6.29622435 1.58846937 4.9375 1.4375 C3.638125 1.293125 2.33875 1.14875 1 1 C0.67 3.64 0.34 6.28 0 9 C-0.33 9 -0.66 9 -1 9 C-1.125 2.25 -1.125 2.25 0 0 Z " fill="#3888C8" transform="translate(83,34)"/>
<path d="M0 0 C2.64 0.33 5.28 0.66 8 1 C8 1.66 8 2.32 8 3 C7.34 3 6.68 3 6 3 C6 3.66 6 4.32 6 5 C3.69 4.67 1.38 4.34 -1 4 C-0.67 2.68 -0.34 1.36 0 0 Z " fill="#3184C7" transform="translate(99,57)"/>
<path d="M0 0 C1.32 0 2.64 0 4 0 C4 0.66 4 1.32 4 2 C0.93753253 3.78409802 -1.22079273 4.22880021 -4.75 4.125 C-5.54921875 4.10695312 -6.3484375 4.08890625 -7.171875 4.0703125 C-7.77515625 4.04710937 -8.3784375 4.02390625 -9 4 C-8.67 3.34 -8.34 2.68 -8 2 C-5.36 2 -2.72 2 0 2 C0 1.34 0 0.68 0 0 Z " fill="#337FBE" transform="translate(174,203)"/>
<path d="M0 0 C0.33 0.99 0.66 1.98 1 3 C2.32 3 3.64 3 5 3 C5.66 4.98 6.32 6.96 7 9 C3.22699642 7.9802693 2.19793856 7.34127338 0.1875 3.875 C-0.204375 2.92625 -0.59625 1.9775 -1 1 C-0.67 0.67 -0.34 0.34 0 0 Z " fill="#2B89CD" transform="translate(38,190)"/>
<path d="M0 0 C0.33 0.66 0.66 1.32 1 2 C0.00390625 4.1640625 0.00390625 4.1640625 -1.4375 6.625 C-1.91058594 7.44226563 -2.38367188 8.25953125 -2.87109375 9.1015625 C-3.24363281 9.72804687 -3.61617187 10.35453125 -4 11 C-5.04528847 7.76591956 -5.06464549 7.15699619 -3.6875 3.8125 C-2 1 -2 1 0 0 Z " fill="#316D9F" transform="translate(194,182)"/>
<path d="M0 0 C0.763125 0.103125 1.52625 0.20625 2.3125 0.3125 C1.9825 1.3025 1.6525 2.2925 1.3125 3.3125 C-0.3375 3.3125 -1.9875 3.3125 -3.6875 3.3125 C-4.0175 5.2925 -4.3475 7.2725 -4.6875 9.3125 C-5.84845535 6.46288233 -5.75317925 5.47304927 -4.5625 2.5625 C-2.6875 0.3125 -2.6875 0.3125 0 0 Z " fill="#3189CD" transform="translate(200.6875,161.6875)"/>
<path d="M0 0 C2.4375 0.9375 2.4375 0.9375 5 3 C5.89146842 5.9919909 6.22001726 8.88590961 6 12 C5.01 13.485 5.01 13.485 4 15 C3.96261719 14.39671875 3.92523438 13.7934375 3.88671875 13.171875 C3.50675198 8.5526711 3.24820627 5.53065899 0 2 C0 1.34 0 0.68 0 0 Z " fill="#3379AE" transform="translate(102,37)"/>
<path d="M0 0 C0.33 0 0.66 0 1 0 C1.63019694 8.03501094 1.63019694 8.03501094 -1 12.0625 C-1.66 12.701875 -2.32 13.34125 -3 14 C-2.40380045 9.13103697 -1.43023178 4.67209049 0 0 Z " fill="#478DC7" transform="translate(152,31)"/>
<path d="M0 0 C-2 2 -2 2 -4.09375 2.265625 C-4.8878125 2.26046875 -5.681875 2.2553125 -6.5 2.25 C-7.2940625 2.25515625 -8.088125 2.2603125 -8.90625 2.265625 C-11 2 -11 2 -13 0 C-4.57142857 -1.28571429 -4.57142857 -1.28571429 0 0 Z " fill="#3586C8" transform="translate(66,207)"/>
<path d="M0 0 C0.33 0.99 0.66 1.98 1 3 C2.32796291 3.35412344 3.66216607 3.68521554 5 4 C6.75 5.5625 6.75 5.5625 8 7 C5.36 6.67 2.72 6.34 0 6 C0 4.02 0 2.04 0 0 Z " fill="#2F81BC" transform="translate(58,168)"/>
<path d="M0 0 C-0.625 1.9375 -0.625 1.9375 -2 4 C-5.125 4.75 -5.125 4.75 -8 5 C-8 4.01 -8 3.02 -8 2 C-4.77208445 -0.1519437 -3.71599191 -0.20086443 0 0 Z " fill="#3A7BB5" transform="translate(26,119)"/>
<path d="M0 0 C1.25 1.5625 1.25 1.5625 2 4 C0.93237266 6.57001015 -0.46544943 8.6530403 -2 11 C-2.33 11 -2.66 11 -3 11 C-2.53199289 6.94393835 -2.12046792 3.53411321 0 0 Z " fill="#376EA0" transform="translate(114,30)"/>
<path d="M0 0 C3.86933162 0.57323431 6.15222057 2.38953552 9 5 C9 5.66 9 6.32 9 7 C8.01 7 7.02 7 6 7 C5.67 6.34 5.34 5.68 5 5 C4.154375 4.505 3.30875 4.01 2.4375 3.5 C1.633125 3.005 0.82875 2.51 0 2 C0 1.34 0 0.68 0 0 Z " fill="#386C9A" transform="translate(200,118)"/>
<path d="M0 0 C2 1 2 1 4 4 C4.99 4.33 5.98 4.66 7 5 C6.67 6.32 6.34 7.64 6 9 C5.01 8.67 4.02 8.34 3 8 C3 7.34 3 6.68 3 6 C2.34 6 1.68 6 1 6 C0.67 4.02 0.34 2.04 0 0 Z " fill="#388ACC" transform="translate(182,84)"/>
<path d="M0 0 C0.66 0 1.32 0 2 0 C2.4125 1.0725 2.825 2.145 3.25 3.25 C4.63739149 6.52265074 6.27999908 8.65517162 9 11 C6.1875 10.5625 6.1875 10.5625 3 9 C1.55562735 6.10596396 0.73692916 3.14164535 0 0 Z " fill="#3E87C0" transform="translate(84,47)"/>
<path d="M0 0 C0 0.99 0 1.98 0 3 C-2.64 3.66 -5.28 4.32 -8 5 C-8.33 4.01 -8.66 3.02 -9 2 C-2.25 0 -2.25 0 0 0 Z " fill="#2969A6" transform="translate(154,178)"/>
<path d="M0 0 C0.125 3.375 0.125 3.375 0 7 C-0.66 7.66 -1.32 8.32 -2 9 C-2.103125 7.88625 -2.20625 6.7725 -2.3125 5.625 C-2.539375 4.42875 -2.76625 3.2325 -3 2 C-3.99 1.34 -4.98 0.68 -6 0 C-2.25 -1.125 -2.25 -1.125 0 0 Z " fill="#285A89" transform="translate(29,165)"/>
<path d="M0 0 C1.485 0.99 1.485 0.99 3 2 C3.29296875 4.1640625 3.29296875 4.1640625 3.1875 6.625 C3.16042969 7.44226563 3.13335937 8.25953125 3.10546875 9.1015625 C3.07066406 9.72804687 3.03585938 10.35453125 3 11 C0.60236815 8.60236815 0.65719414 7.66726502 0.375 4.375 C0.30023438 3.55773437 0.22546875 2.74046875 0.1484375 1.8984375 C0.09945312 1.27195313 0.05046875 0.64546875 0 0 Z " fill="#3E90CF" transform="translate(54,153)"/>
<path d="M0 0 C2.31 0.33 4.62 0.66 7 1 C7 1.33 7 1.66 7 2 C5.35 2 3.7 2 2 2 C1.67 3.98 1.34 5.96 1 8 C0.34 7.34 -0.32 6.68 -1 6 C-0.625 2.875 -0.625 2.875 0 0 Z " fill="#3171A4" transform="translate(137,130)"/>
<path d="M0 0 C6.15234375 0.5859375 6.15234375 0.5859375 8 1 C8.33 1.66 8.66 2.32 9 3 C9.99 3.66 10.98 4.32 12 5 C6.71201818 4.58525633 3.88309282 3.64775386 0 0 Z " fill="#326391" transform="translate(97,160)"/>
<path d="M0 0 C0.99 0 1.98 0 3 0 C5.09230769 4.43076923 5.09230769 4.43076923 4.625 7.3125 C4.41875 7.869375 4.2125 8.42625 4 9 C0 2.25 0 2.25 0 0 Z " fill="#2B5A83" transform="translate(13,152)"/>
<path d="M0 0 C3.9492568 0.55105909 7.34920174 1.38935371 11 3 C10.67 3.66 10.34 4.32 10 5 C7.36 4.67 4.72 4.34 2 4 C2 3.01 2 2.02 2 1 C1.34 0.67 0.68 0.34 0 0 Z " fill="#3371A5" transform="translate(96,150)"/>
<path d="M0 0 C2.64 0 5.28 0 8 0 C7.67 0.99 7.34 1.98 7 3 C2.25 4.125 2.25 4.125 0 3 C0 2.01 0 1.02 0 0 Z " fill="#4489BC" transform="translate(129,136)"/>
<path d="M0 0 C0.75 1.625 0.75 1.625 1 4 C-0.9375 7.25 -0.9375 7.25 -3 10 C-4 7 -4 7 -3.22265625 5.17578125 C-2.1484375 3.45052083 -1.07421875 1.72526042 0 0 Z " fill="#2D628D" transform="translate(34,92)"/>
<path d="M0 0 C0.66 1.32 1.32 2.64 2 4 C-0.93828597 6.50298434 -3.17902761 7.46930939 -7 8 C-7 7.34 -7 6.68 -7 6 C-5.02 5.67 -3.04 5.34 -1 5 C-0.67 3.35 -0.34 1.7 0 0 Z " fill="#378BD1" transform="translate(136,52)"/>
<path d="M0 0 C4.13333333 6.2 4.13333333 6.2 3.625 9.25 C3.41875 9.8275 3.2125 10.405 3 11 C-1.06153846 4.6 -1.06153846 4.6 -0.75 1.5625 C-0.5025 1.046875 -0.255 0.53125 0 0 Z " fill="#32679B" transform="translate(82,43)"/>
<path d="M0 0 C3.24271506 0.5590888 4.93057424 1.4132178 7 4 C7 4.66 7 5.32 7 6 C2.32307692 4.52307692 2.32307692 4.52307692 0.6875 1.875 C0.460625 1.25625 0.23375 0.6375 0 0 Z " fill="#356EA1" transform="translate(41,198)"/>
<path d="M0 0 C2.97 0.495 2.97 0.495 6 1 C6 1.99 6 2.98 6 4 C3.03 3.505 3.03 3.505 0 3 C0 2.01 0 1.02 0 0 Z " fill="#1A89DD" transform="translate(130,132)"/>
<path d="M0 0 C1.65 0 3.3 0 5 0 C5.33 1.65 5.66 3.3 6 5 C5.01 5 4.02 5 3 5 C3 4.01 3 3.02 3 2 C2.01 2 1.02 2 0 2 C0 1.34 0 0.68 0 0 Z " fill="#1A8ADB" transform="translate(147,132)"/>
<path d="M0 0 C3.465 1.485 3.465 1.485 7 3 C7 3.99 7 4.98 7 6 C5.35 5.67 3.7 5.34 2 5 C2 4.34 2 3.68 2 3 C1.34 2.67 0.68 2.34 0 2 C0 1.34 0 0.68 0 0 Z " fill="#3787CA" transform="translate(20,159)"/>
<path d="M0 0 C0.33 0.99 0.66 1.98 1 3 C-0.9375 6.1875 -0.9375 6.1875 -3 9 C-3.89674777 6.48910624 -4.13172674 5.35464891 -3.1875 2.8125 C-2 1 -2 1 0 0 Z " fill="#255170" transform="translate(211,152)"/>
<path d="M0 0 C0.66 0.33 1.32 0.66 2 1 C2 3.64 2 6.28 2 9 C1.34 9 0.68 9 0 9 C-1.125 3.375 -1.125 3.375 0 0 Z " fill="#3087CC" transform="translate(107,49)"/>
<path d="M0 0 C-2.91765 1.9451 -4.62537285 2.45276317 -8 3 C-8 2.01 -8 1.02 -8 0 C-4.71023192 -1.09658936 -3.28696233 -0.79953138 0 0 Z " fill="#346FA7" transform="translate(173,207)"/>
<path d="M0 0 C0.33 0.66 0.66 1.32 1 2 C0.06421005 4.35981813 -0.93347808 6.69631264 -2 9 C-2.33 9 -2.66 9 -3 9 C-3.36923077 3.46153846 -3.36923077 3.46153846 -1.5 1.125 C-1.005 0.75375 -0.51 0.3825 0 0 Z " fill="#3683BA" transform="translate(58,118)"/>
<path d="M0 0 C4.7517398 0.43197635 6.92000054 1.32769295 10 5 C5.59885603 4.49701212 3.28804981 2.91227269 0 0 Z " fill="#306996" transform="translate(85,121)"/>
<path d="M0 0 C0.66 0 1.32 0 2 0 C1.75 1.875 1.75 1.875 1 4 C-1.0625 5.25 -1.0625 5.25 -3 6 C-3 4.68 -3 3.36 -3 2 C-2.01 2 -1.02 2 0 2 C0 1.34 0 0.68 0 0 Z " fill="#2A638E" transform="translate(181,198)"/>
<path d="M0 0 C1.32 0.33 2.64 0.66 4 1 C4 3.31 4 5.62 4 8 C1.53721199 5.53721199 1.00228745 3.29323018 0 0 Z " fill="#38709A" transform="translate(164,114)"/>
</svg>
